<svg width="221" height="19" viewBox="0 0 221 19" fill="none" xmlns="http://www.w3.org/2000/svg">
<g clip-path="url(#clip0_4614_9396)">
<path d="M11.9912 18.9448C13.0874 18.9448 14.1844 18.4487 14.4197 17.853L14.9682 16.4728C15.2287 15.8736 14.5233 15.3797 13.4275 15.3797H5.40514L11.515 1.0934C11.7503 0.49657 11.0713 0 9.97359 0C8.87663 0 7.78038 0.49657 7.54502 1.0934L0 18.9448H11.9912Z" fill="#E41E14"></path>
<path d="M66.7649 15.3796H71.5114C73.1298 15.3796 73.5754 15.2241 73.9392 14.2865L77.6475 5.17991C78.0128 4.24223 77.726 4.08627 76.108 4.08627H66.2399L61.2076 16.5245C60.5025 18.2168 58.9881 18.9447 56.35 18.9447H44.2557C41.6188 18.9447 40.6788 18.2168 41.3835 16.5245L46.4141 4.08627H28.6217C27.0021 4.08627 26.5596 4.24223 26.1932 5.17991L22.4849 14.2865C22.1196 15.2241 22.4071 15.3796 24.0275 15.3796H31.9434C33.5625 15.3796 34.0067 15.2241 34.372 14.2865L37.1132 7.57103C37.3486 6.97159 38.4462 6.47763 39.542 6.47763C40.639 6.47763 41.3173 6.97159 41.0824 7.57103L37.454 16.5245C36.7487 18.2168 35.2331 18.9447 32.5974 18.9447H20.5024C17.8648 18.9447 16.924 18.2168 17.6296 16.5245L23.113 2.94048C23.8172 1.24907 25.333 0.520921 27.9687 0.520921H49.3575C49.4812 0.511203 49.7192 0.520921 49.8441 0.520921C50.9406 0.520921 51.619 1.01607 51.3843 1.61432L46.2401 14.2865C45.8749 15.2241 46.1617 15.3796 47.7808 15.3796H55.6984C57.0509 15.3796 57.5799 15.2644 57.9317 14.6835L63.672 0.520921H79.6331C82.2695 0.520921 83.2108 1.24907 82.5049 2.94048L77.0213 16.5245C76.3164 18.2168 74.8027 18.9447 72.1653 18.9447H65.3286C64.2333 18.9447 63.5298 18.4498 63.7907 17.853L64.3383 16.4728C64.5748 15.8736 65.6703 15.3796 66.7649 15.3796Z" fill="#E41E14"></path>
<path d="M103.309 0.515625H97.2395L97.243 0.519417H89.1858C88.09 0.519417 86.9931 1.01433 86.7577 1.61258L86.2097 2.99136C85.9488 3.5908 86.6537 4.08476 87.7504 4.08476H100.036L100.034 4.08216C101.43 4.09946 101.673 4.28576 101.323 5.17295L100.19 8.013C96.8877 7.99214 88.4001 7.95279 88.4001 7.95279C85.7636 7.95279 84.2488 8.66861 83.5427 10.36L80.92 16.5227C80.2139 18.2151 81.1539 18.9432 83.7928 18.9432H95.8704C98.5081 18.9432 100.024 18.2151 100.728 16.5227L106.182 2.93495C106.887 1.24235 105.947 0.515625 103.309 0.515625ZM95.2196 15.3779H87.3152C85.6975 15.3779 85.4107 15.2221 85.776 14.2847L86.624 12.5983C86.9917 11.6615 87.4368 11.5034 89.0533 11.5034L98.779 11.4925L97.6476 14.2847C97.2812 15.2221 96.8375 15.3779 95.2196 15.3779Z" fill="#E41E14"></path>
<path d="M196.707 0.564785L162.52 0.55957C162.402 0.55957 162.285 0.569525 162.172 0.576873C162.093 0.574503 162.018 0.564785 161.936 0.564785C160.846 0.564785 159.755 1.05733 159.519 1.65179L154.399 14.2663C154.037 15.1966 153.594 15.3545 151.98 15.3545H144.103C142.491 15.3545 142.206 15.1966 142.571 14.2663L147.687 1.65179C147.921 1.05733 147.246 0.564785 146.155 0.564785C145.065 0.564785 143.973 1.05733 143.739 1.65179L137.735 16.4946C137.031 18.1773 137.968 18.9028 140.595 18.9028H152.633C155.258 18.9028 156.765 18.1773 157.465 16.4946L162.478 4.10667H166.704L166.699 4.11046H168.923L163.361 17.8132C163.125 18.4102 163.802 18.9028 164.893 18.9028C165.983 18.9028 167.074 18.4102 167.31 17.8132L172.889 4.11425H193.198C194.811 4.11425 195.096 4.26856 194.731 5.20149L190.991 14.2663C190.629 15.1966 190.185 15.3545 188.575 15.3545H180.696C179.18 15.3545 178.846 15.2076 179.11 14.4183L181.872 7.58266C182.105 6.98725 181.431 6.49542 180.336 6.49542C179.246 6.49542 178.154 6.98725 177.919 7.58266L174.383 16.3424H174.389L174.328 16.4946C173.627 18.1773 174.561 18.9028 177.187 18.9028H189.275C191.902 18.9028 193.406 18.1773 194.108 16.4946L199.567 2.97297C200.268 1.29009 199.331 0.564785 196.707 0.564785Z" fill="#949494"></path>
<path d="M139.377 2.93258C140.078 1.25088 139.141 0.522973 136.518 0.522973L123.428 0.515625C122.338 0.515625 121.244 1.01077 121.009 1.60263L120.465 2.97548C120.205 3.57231 120.908 4.06509 121.997 4.06509L129.569 4.07007L133.008 4.07362C134.622 4.07362 134.908 4.22817 134.543 5.16086L133.569 7.55317L121.678 7.49936C119.058 7.49936 117.55 8.20286 116.845 9.88313L114.234 16.4172C113.532 18.1025 114.468 18.8245 117.092 18.8245L129.086 18.8598C131.076 18.8598 132.42 18.4431 133.261 17.5092C133.544 17.2027 133.771 16.8389 133.947 16.4172L133.936 16.4099L139.377 2.93258ZM119.065 14.1901L119.911 12.1102C120.277 11.1787 120.717 11.0244 122.33 11.0244L132.16 11.0145L130.853 14.2257C130.766 14.4487 130.674 14.6239 130.562 14.7663C130.209 15.189 129.659 15.2774 128.463 15.2774H120.6C118.987 15.2774 118.701 15.1205 119.065 14.1901Z" fill="#949494"></path>
<path fill-rule="evenodd" clip-rule="evenodd" d="M209.08 17.9011H208.671C208.646 17.8968 208.622 17.8932 208.598 17.889C208.505 17.8717 208.409 17.8624 208.318 17.8359C207.931 17.723 207.686 17.4073 207.664 17.0034C207.652 16.7676 207.704 16.5441 207.792 16.3279C207.889 16.093 207.987 15.8586 208.084 15.6242C208.643 14.2741 209.202 12.9235 209.761 11.5741C209.768 11.5554 209.774 11.5369 209.783 11.5125H209.701C208.13 11.5125 206.559 11.512 204.989 11.5125C204.872 11.5125 204.757 11.504 204.645 11.4746C204.253 11.3722 204.011 11.1292 203.941 10.7246C203.937 10.7054 203.927 10.6872 203.919 10.6684V10.4326C203.929 10.3933 203.941 10.3539 203.948 10.3141C203.976 10.1674 204.024 10.027 204.083 9.89004C204.159 9.71156 204.223 9.52787 204.321 9.35934C204.58 8.91326 204.941 8.57313 205.391 8.32472C205.737 8.13392 206.105 8.03674 206.504 8.03816C208.051 8.04242 209.598 8.03982 211.144 8.03982H211.223C211.234 8.01303 211.244 7.99241 211.252 7.97179C211.897 6.41524 212.541 4.85869 213.185 3.30166C213.251 3.14357 213.313 2.98334 213.403 2.83615C213.675 2.38864 214.047 2.04898 214.511 1.80816C214.781 1.66737 215.065 1.57398 215.372 1.55952C215.388 1.55834 215.404 1.55289 215.42 1.5498H215.867C215.889 1.5536 215.911 1.55763 215.933 1.56071C216 1.56995 216.069 1.57398 216.135 1.58939C216.382 1.64746 216.585 1.77142 216.722 1.99044C216.833 2.16631 216.87 2.36043 216.862 2.56546C216.855 2.76196 216.803 2.94779 216.729 3.12864C216.358 4.02294 215.988 4.91747 215.617 5.81177C215.318 6.5347 215.019 7.25739 214.72 7.98032C214.713 7.99763 214.707 8.01611 214.698 8.03982H219.582C219.613 8.03982 219.644 8.03887 219.675 8.04053C219.82 8.04788 219.963 8.06921 220.097 8.12704C220.412 8.26286 220.603 8.49562 220.645 8.84168C220.646 8.85116 220.652 8.8604 220.655 8.86941V9.14223C220.651 9.15574 220.646 9.16901 220.643 9.18276C220.636 9.22732 220.633 9.2733 220.622 9.31668C220.548 9.60182 220.433 9.87227 220.298 10.132C220.052 10.604 219.68 10.9548 219.219 11.215C218.864 11.4163 218.485 11.516 218.073 11.5144C216.495 11.5087 214.917 11.5125 213.34 11.5125H213.26C213.248 11.5383 213.237 11.5604 213.228 11.5831C212.627 13.0344 212.026 14.4865 211.425 15.9378C211.35 16.1191 211.282 16.3044 211.192 16.478C210.907 17.0307 210.467 17.4239 209.909 17.6889C209.699 17.7882 209.478 17.8553 209.246 17.8788C209.19 17.8845 209.135 17.8935 209.08 17.9011Z" fill="#E41E14"></path>
</g>
<defs>
<clipPath id="clip0_4614_9396">
<rect width="220.662" height="19" fill="white"></rect>
</clipPath>
</defs>
</svg>